<svg id="Layer_1" data-name="Layer 1" xmlns="http://www.w3.org/2000/svg" viewBox="0 0 254 228"><defs><style>.cls-1{fill:#58595b;}.cls-2{fill:#fff;}.cls-2,.cls-3{fill-rule:evenodd;}.cls-3{fill:#afbc37;}</style></defs><title>logo</title><path class="cls-1" d="M11.37,215.15c0,.64.15,1,.43,1.23l.28.14c.36.22.54.46.54.71,0,.53-.39.79-1.17.79H6.94c-.78,0-1.17-.26-1.17-.79a.52.52,0,0,1,.13-.39,3.28,3.28,0,0,1,.46-.32l.23-.14c.28-.14.43-.55.43-1.23V204.28c0-.72-.15-1.14-.43-1.28l-.23-.15a3.79,3.79,0,0,1-.46-.31.51.51,0,0,1-.13-.4q0-.78,1.17-.78l8.44,0a9.3,9.3,0,0,1,3.93.64,3.93,3.93,0,0,1,1.6,1.37,3.48,3.48,0,0,1,.61,2q0,2.76-3.61,4.41a17.36,17.36,0,0,1,3.3,5.56,5,5,0,0,0,.48.87,2.39,2.39,0,0,0,.65.52,3.22,3.22,0,0,1,.47.29.47.47,0,0,1,.12.37c0,.45-.42.68-1.25.68H17.05a3.26,3.26,0,0,1-1-.14.57.57,0,0,1-.39-.61c0-.23.17-.45.5-.65s.51-.4.51-.62a6.44,6.44,0,0,0-1.06-2.61,15.31,15.31,0,0,0-1.86-2.69l-2.34.37Zm0-5.83a9,9,0,0,0,3.83-.9,2.82,2.82,0,0,0,1.73-2.65,2.45,2.45,0,0,0-.95-2.11,4.09,4.09,0,0,0-2.48-.7,2.42,2.42,0,0,0-1.74.45,2,2,0,0,0-.39,1.49Z"/><path class="cls-1" d="M36.46,215.15a4.27,4.27,0,0,0,.11,1.19,2.62,2.62,0,0,0,.43.37.76.76,0,0,1,.43.6c0,.47-.3.71-.9.71h-4c-.6,0-.9-.24-.9-.71a.74.74,0,0,1,.43-.6,3.23,3.23,0,0,0,.43-.37,4.27,4.27,0,0,0,.11-1.19v-3.82a4,4,0,0,0-.39-1.89,1.6,1.6,0,0,0-1.54-.72,2.11,2.11,0,0,0-1.6.67,2.36,2.36,0,0,0-.51,1.61v4.15a3.81,3.81,0,0,0,.12,1.19,1.62,1.62,0,0,0,.43.37.75.75,0,0,1,.42.6c0,.47-.29.71-.89.71h-4c-.6,0-.91-.24-.91-.71a.76.76,0,0,1,.43-.6,2.78,2.78,0,0,0,.44-.37,4.27,4.27,0,0,0,.11-1.19v-9.68a13.93,13.93,0,0,0-.07-1.72,1.33,1.33,0,0,0-.71-.82c-.39-.21-.59-.42-.59-.63a.57.57,0,0,1,.39-.55,7.76,7.76,0,0,1,1.06-.32,12.58,12.58,0,0,1,2.8-.66.74.74,0,0,1,.79.54,5.86,5.86,0,0,1,.18,1.69v5A6.18,6.18,0,0,1,32,206.88a4.45,4.45,0,0,1,3.38,1.24,4.62,4.62,0,0,1,1.06,3.4Z"/><path class="cls-1" d="M41,216.93a5.07,5.07,0,0,1-2.1-4.25,5.31,5.31,0,0,1,2-4.15,7.28,7.28,0,0,1,4.9-1.65,7.54,7.54,0,0,1,2.45.41,7,7,0,0,1,2.12,1.16,5.51,5.51,0,0,1,1.46,1.79,5.26,5.26,0,0,1-.42,5.35,6.3,6.3,0,0,1-2.53,2,7.7,7.7,0,0,1-3.32.73A7.16,7.16,0,0,1,41,216.93m7.31-4.51a5.83,5.83,0,0,0-.6-2.72,2.37,2.37,0,0,0-3.64-.55,3.28,3.28,0,0,0-.85,1.5,7.28,7.28,0,0,0-.24,1.88q0,4.26,2.64,4.26t2.69-4.37"/><path class="cls-1" d="M73.74,215.15a3.81,3.81,0,0,0,.12,1.19,1.62,1.62,0,0,0,.43.37.76.76,0,0,1,.43.6c0,.47-.3.71-.9.71h-4c-.6,0-.9-.24-.9-.71a.74.74,0,0,1,.43-.6,3.17,3.17,0,0,0,.43-.37,3.91,3.91,0,0,0,.11-1.19v-3.56a5.56,5.56,0,0,0-.27-1.92,1.21,1.21,0,0,0-1.28-.72,2,2,0,0,0-1.64.74,3.53,3.53,0,0,0-.42,2v3.44a6.14,6.14,0,0,0,.07,1.19s.17.14.47.37a.75.75,0,0,1,.42.6c0,.47-.29.71-.89.71h-4c-.6,0-.9-.24-.9-.71a.7.7,0,0,1,.43-.6,1.62,1.62,0,0,0,.43-.37,4.27,4.27,0,0,0,.11-1.19v-3.56a5.56,5.56,0,0,0-.27-1.92,1.19,1.19,0,0,0-1.27-.72,2,2,0,0,0-1.64.74,3.51,3.51,0,0,0-.43,2v3.44a5.88,5.88,0,0,0,.08,1.19,3.42,3.42,0,0,0,.47.37.75.75,0,0,1,.42.6c0,.47-.3.71-.89.71h-4c-.62,0-.93-.24-.93-.71a.76.76,0,0,1,.43-.6,1.21,1.21,0,0,0,.46-.37,5.21,5.21,0,0,0,.08-1.19v-4.38a3.19,3.19,0,0,0-.12-1.06,1.16,1.16,0,0,0-.58-.55c-.34-.11-.5-.3-.5-.59s.49-.74,1.47-1.12a6.87,6.87,0,0,1,2.18-.57.77.77,0,0,1,.75.47,5.26,5.26,0,0,1,.34,1.18,4.87,4.87,0,0,1,3.81-1.65,3.58,3.58,0,0,1,3.38,1.84,4.64,4.64,0,0,1,4-1.84,4.29,4.29,0,0,1,3,1.05,4,4,0,0,1,1,3.1Z"/><path class="cls-1" d="M86.22,218c-.78,0-1.17-.26-1.17-.79a.52.52,0,0,1,.13-.39,4,4,0,0,1,.46-.32l.27-.14c.29-.18.43-.59.43-1.23V204.24c0-.68-.14-1.1-.43-1.28l-.27-.11c-.39-.23-.59-.48-.59-.75a.64.64,0,0,1,.36-.59,1.67,1.67,0,0,1,.81-.19h8.63a7.57,7.57,0,0,1,3.66.71,3.25,3.25,0,0,1,1.87,3,3.15,3.15,0,0,1-1,2.27A6.8,6.8,0,0,1,97,208.83a7.29,7.29,0,0,1,2.28.83,4.71,4.71,0,0,1,1.62,1.51,3.86,3.86,0,0,1,.61,2.14,4,4,0,0,1-1.84,3.51A7.12,7.12,0,0,1,95.4,218Zm4.44-9.08a11,11,0,0,0,3.64-1.39,3,3,0,0,0,1.61-2.61c0-1.37-1.09-2.05-3.27-2.05a2.61,2.61,0,0,0-1.75.41,2.25,2.25,0,0,0-.23,1.23Zm0,5.75A1.79,1.79,0,0,0,91,216a2.63,2.63,0,0,0,1.63.34,5.53,5.53,0,0,0,3-.79,2.67,2.67,0,0,0,1.24-2.43,2.89,2.89,0,0,0-.79-2A4,4,0,0,0,94.2,210l-3.54.82Z"/><path class="cls-1" d="M115.78,215.15a4.27,4.27,0,0,0,.11,1.19,3.23,3.23,0,0,0,.43.37.75.75,0,0,1,.42.6c0,.47-.29.71-.89.71h-4c-.6,0-.9-.24-.9-.71a.76.76,0,0,1,.43-.6,3.23,3.23,0,0,0,.43-.37,3.91,3.91,0,0,0,.11-1.19v-3.82a4,4,0,0,0-.39-1.89,1.61,1.61,0,0,0-1.54-.72,2.11,2.11,0,0,0-1.6.67,2.36,2.36,0,0,0-.51,1.61v4.15a3.81,3.81,0,0,0,.12,1.19,1.62,1.62,0,0,0,.43.37.76.76,0,0,1,.43.6c0,.47-.3.71-.9.71h-4c-.6,0-.9-.24-.9-.71a.75.75,0,0,1,.42-.6,2.34,2.34,0,0,0,.44-.37,4.27,4.27,0,0,0,.11-1.19v-9.68a13.93,13.93,0,0,0-.07-1.72,1.38,1.38,0,0,0-.7-.82c-.4-.21-.59-.42-.59-.63a.55.55,0,0,1,.39-.55,7.15,7.15,0,0,1,1-.32,12.58,12.58,0,0,1,2.8-.66.75.75,0,0,1,.79.54,5.86,5.86,0,0,1,.18,1.69v5a6.18,6.18,0,0,1,3.46-1.09,4.45,4.45,0,0,1,3.38,1.24,4.66,4.66,0,0,1,1.06,3.4Z"/><path class="cls-1" d="M120.29,216.93a5.07,5.07,0,0,1-2.1-4.25,5.31,5.31,0,0,1,2-4.15,7.3,7.3,0,0,1,4.9-1.65,7.54,7.54,0,0,1,2.45.41,7,7,0,0,1,2.12,1.16,5.51,5.51,0,0,1,1.46,1.79,5.26,5.26,0,0,1-.42,5.35,6.3,6.3,0,0,1-2.53,2,7.7,7.7,0,0,1-3.32.73,7.16,7.16,0,0,1-4.58-1.43m7.31-4.51a5.83,5.83,0,0,0-.6-2.72,2.37,2.37,0,0,0-3.64-.55,3.28,3.28,0,0,0-.85,1.5,7.28,7.28,0,0,0-.24,1.88q0,4.26,2.64,4.26t2.69-4.37"/><path class="cls-1" d="M147.73,215.18a3.68,3.68,0,0,0,.16.75.64.64,0,0,0,.28.36,5,5,0,0,0,.62.27.79.79,0,0,1,.58.75c0,.47-.54.71-1.6.71h-4.43c-.78,0-1.17-.26-1.17-.79a.47.47,0,0,1,.11-.37,3.45,3.45,0,0,1,.44-.34l.27-.14q.42-.21.42-1.23V204.24c0-.71-.14-1.14-.42-1.28l-.27-.11c-.37-.24-.55-.49-.55-.75q0-.78,1.17-.78h7.31a10.45,10.45,0,0,1,4.51.82,4.79,4.79,0,0,1,1.83,1.53,3.84,3.84,0,0,1,.66,2.21,4.1,4.1,0,0,1-1,2.7,7.46,7.46,0,0,1-2.56,1.93,10.54,10.54,0,0,1-2.85.87,28.54,28.54,0,0,1-3.53.36Zm0-5.2a9.38,9.38,0,0,0,3.72-1.21A3,3,0,0,0,153,206a2.85,2.85,0,0,0-1-2.28,3.66,3.66,0,0,0-2.46-.82,2,2,0,0,0-1.51.41,1.85,1.85,0,0,0-.36,1.35Z"/><path class="cls-1" d="M164.19,215a4,4,0,0,0,.11,1.23.93.93,0,0,0,.54.42c.37.18.55.4.55.67s-.11.54-.34.62a2.61,2.61,0,0,1-.94.13h-3.7a2.64,2.64,0,0,1-.95-.14.58.58,0,0,1-.34-.61c0-.27.19-.49.56-.67a1,1,0,0,0,.54-.42,4.37,4.37,0,0,0,.11-1.23v-4.18a1.85,1.85,0,0,0-.15-.59,1,1,0,0,0-.26-.53,2.2,2.2,0,0,0-.6-.33c-.41-.18-.62-.43-.62-.75s.39-.73,1.17-1a21.3,21.3,0,0,1,2.48-.64.89.89,0,0,1,.91.61,10.58,10.58,0,0,1,.46,1.75,5.24,5.24,0,0,1,1.3-1.66,2.72,2.72,0,0,1,1.77-.7,1.85,1.85,0,0,1,1.3.47,1.61,1.61,0,0,1,.49,1.22,1.86,1.86,0,0,1-.33,1.08,1.05,1.05,0,0,1-.91.49,3,3,0,0,1-.83-.15,2.89,2.89,0,0,0-.77-.15c-.46,0-.82.28-1.09.86a4.94,4.94,0,0,0-.46,2.42Z"/><path class="cls-1" d="M171.73,216.93a5.09,5.09,0,0,1-2.1-4.25,5.32,5.32,0,0,1,2-4.15,7.27,7.27,0,0,1,4.89-1.65,7.56,7.56,0,0,1,2.46.41,7,7,0,0,1,2.11,1.16,5.38,5.38,0,0,1,1.46,1.79,4.93,4.93,0,0,1,.55,2.32,5,5,0,0,1-1,3,6.3,6.3,0,0,1-2.53,2,7.7,7.7,0,0,1-3.32.73,7.19,7.19,0,0,1-4.59-1.43m7.32-4.51a6,6,0,0,0-.6-2.72,2.13,2.13,0,0,0-2.06-1.17,2.16,2.16,0,0,0-1.59.62,3.26,3.26,0,0,0-.84,1.5,7.28,7.28,0,0,0-.24,1.88q0,4.26,2.64,4.26t2.69-4.37"/><path class="cls-1" d="M189.85,219.14a4.27,4.27,0,0,0,.11,1.23.79.79,0,0,0,.52.41c.38.24.57.48.57.71a.54.54,0,0,1-.35.59,2.87,2.87,0,0,1-.93.12H186a3,3,0,0,1-.95-.12.55.55,0,0,1-.33-.59c0-.23.19-.47.58-.71a.74.74,0,0,0,.5-.41,3.72,3.72,0,0,0,.13-1.23v-8.37a3.13,3.13,0,0,0-.13-1.06,1.2,1.2,0,0,0-.58-.55.6.6,0,0,1-.5-.59c0-.36.49-.74,1.47-1.12a6.87,6.87,0,0,1,2.18-.57q.84,0,1.05,1.65a5,5,0,0,1,3.66-1.65,5.65,5.65,0,0,1,2.95.75,5.05,5.05,0,0,1,1.93,2,6.19,6.19,0,0,1,.68,2.89,5.84,5.84,0,0,1-.75,2.93,5.48,5.48,0,0,1-2.09,2.1,5.79,5.79,0,0,1-3,.76,4.18,4.18,0,0,1-1.64-.33,1.09,1.09,0,0,1-.81-1c0-.37.16-.56.5-.56a4.8,4.8,0,0,1,.54,0l.55,0a2.27,2.27,0,0,0,1.79-.93,4.93,4.93,0,0,0,.77-2.88A6,6,0,0,0,194,210a2,2,0,0,0-1.93-1.21,2.08,2.08,0,0,0-1.67.71,3.22,3.22,0,0,0-.55,2.17Z"/><path class="cls-1" d="M207.54,216.52a4.92,4.92,0,0,0,3.19-1.34,1.53,1.53,0,0,1,1-.53.7.7,0,0,1,.47.2.59.59,0,0,1,.23.44,1.72,1.72,0,0,1-.64,1.15,6.34,6.34,0,0,1-1.3,1,8.15,8.15,0,0,1-3.93.93,7.48,7.48,0,0,1-3.11-.65,5.83,5.83,0,0,1-2.37-1.89,4.68,4.68,0,0,1-.9-2.83,5.42,5.42,0,0,1,1-3.22,6.28,6.28,0,0,1,2.63-2.13,8.34,8.34,0,0,1,3.5-.75,6.74,6.74,0,0,1,3.36.85,2.69,2.69,0,0,1,1.5,2.48,2.37,2.37,0,0,1-.95,1.91,6.86,6.86,0,0,1-2.28,1.19c-.42.12-.85.22-1.27.3s-.89.16-1.41.23l-1.75.26a2.94,2.94,0,0,0,1.08,1.75,3.07,3.07,0,0,0,2,.67m.9-6.57a1.61,1.61,0,0,0-.36-1.09,1.32,1.32,0,0,0-1.05-.41,2.28,2.28,0,0,0-2.06,1.27,5.5,5.5,0,0,0-.74,2.84,8,8,0,0,0,2.89-.72,2,2,0,0,0,1.32-1.89"/><path class="cls-1" d="M219.33,215a4,4,0,0,0,.11,1.23.93.93,0,0,0,.54.42c.37.18.55.4.55.67s-.11.54-.34.62a2.61,2.61,0,0,1-.94.13h-3.7a2.64,2.64,0,0,1-1-.14c-.22-.08-.33-.29-.33-.61s.18-.49.55-.67a1,1,0,0,0,.54-.42,4.37,4.37,0,0,0,.11-1.23v-4.18a1.85,1.85,0,0,0-.15-.59,1,1,0,0,0-.26-.53,2.2,2.2,0,0,0-.6-.33c-.41-.18-.62-.43-.62-.75s.39-.73,1.17-1a21.3,21.3,0,0,1,2.48-.64.9.9,0,0,1,.91.61,10.58,10.58,0,0,1,.46,1.75,5.24,5.24,0,0,1,1.3-1.66,2.72,2.72,0,0,1,1.77-.7,1.85,1.85,0,0,1,1.3.47,1.61,1.61,0,0,1,.49,1.22,1.86,1.86,0,0,1-.33,1.08,1.05,1.05,0,0,1-.91.49,3,3,0,0,1-.83-.15,2.89,2.89,0,0,0-.77-.15c-.46,0-.82.28-1.09.86a4.94,4.94,0,0,0-.46,2.42Z"/><path class="cls-1" d="M229.9,214.65a2.34,2.34,0,0,0,.24,1.24c.16.25.52.37,1.08.37a3.84,3.84,0,0,1,1.21.15.71.71,0,0,1,.43.75c0,.57-.53.86-1.59.86H228a2.86,2.86,0,0,1-1.58-.31c-.27-.21-.4-.69-.4-1.45v-7.4h-.48a2.91,2.91,0,0,1-1.06-.15c-.25-.11-.37-.35-.37-.74s.32-.74,1-.82a2.13,2.13,0,0,0,1.59-.71,6.39,6.39,0,0,0,.67-2.06,1.78,1.78,0,0,1,.36-.92,1.38,1.38,0,0,1,.92-.23,1.74,1.74,0,0,1,1,.18,1.37,1.37,0,0,1,.2.9v2.76h1.39a3.12,3.12,0,0,1,1.1.15c.26.1.38.35.38.75,0,.59-.48.89-1.43.89H229.9Z"/><path class="cls-1" d="M237.71,207.07c1,0,1.53.26,1.53.75a.75.75,0,0,1-.29.51,3.54,3.54,0,0,0-.41.45,1.21,1.21,0,0,0-.12.65,11.71,11.71,0,0,0,.78,4.1,8.86,8.86,0,0,0,.78,1.71c.34.58.71.87,1.09.87s.83-.42,1.17-1.26A14.27,14.27,0,0,0,243,212a14.89,14.89,0,0,0,.29-2.3,2.62,2.62,0,0,0-.1-.84,1,1,0,0,0-.52-.47.79.79,0,0,1-.51-.67.5.5,0,0,1,.31-.52,3.25,3.25,0,0,1,1.05-.12h1.36c1,0,1.48.19,1.48.56a1.23,1.23,0,0,1-.39.75.63.63,0,0,1-.1.15.68.68,0,0,0-.13.18.55.55,0,0,0-.08.15,20.62,20.62,0,0,0-.39,2.1,22.79,22.79,0,0,1-1.46,5,14.7,14.7,0,0,1-2.9,4.61,5.45,5.45,0,0,1-4.08,1.93,3.12,3.12,0,0,1-1.45-.37,1.14,1.14,0,0,1-.68-1.05,1,1,0,0,1,.42-.86,1.52,1.52,0,0,1,1-.33,3,3,0,0,1,1.07.24,2.87,2.87,0,0,0,.76.24,2.83,2.83,0,0,0,1.75-1.12,5.93,5.93,0,0,0,1.05-1.53,4.22,4.22,0,0,1-1.13.15,4.11,4.11,0,0,1-2.91-1.23,6.25,6.25,0,0,1-1.47-2.87c-.34-1.27-.65-2.8-.94-4.57a1.33,1.33,0,0,0-.45-.85.77.77,0,0,1-.37-.6c0-.42.39-.64,1.17-.64Z"/><path class="cls-2" d="M151.63,39.1a17.47,17.47,0,0,0-.87-6.41,19.15,19.15,0,0,0-2.22-4.6,23.77,23.77,0,0,0-2.68-3.34,76.29,76.29,0,0,0-6.86-6.2c-2.94-2.47-5.88-4.93-8.63-7.6a9.75,9.75,0,0,1-2.69-4.51c-.16-.56-.36-1.12-.54-1.68-.1-.29-.34-.37-.65-.36s-.53.08-.6.41c0,.17-.1.34-.14.5a11.33,11.33,0,0,1-3.13,5.76c-.84.78-1.71,1.51-2.54,2.29-2.62,2.46-5.43,4.72-8.18,7a46.66,46.66,0,0,0-6.16,6,18.82,18.82,0,0,0-4.33,10.26,23.4,23.4,0,0,0,1,9.64,10.55,10.55,0,0,0,3.59,5.3,8.78,8.78,0,0,0,8.79,1.53c1.08-.4,2.15-.85,3.26-1.15a4.65,4.65,0,0,1,4,.49,4.86,4.86,0,0,1,1.49,2.08c.94,1.91,1.59,3.92,2.36,5.89.1.25.18.5.28.74s.13.29.31.27.25-.15.3-.3.2-.49.28-.74a65.71,65.71,0,0,1,2.53-6.3,3.51,3.51,0,0,1,2.73-2.25,5.54,5.54,0,0,1,3.06.25c.76.31,1.52.6,2.29.88a10,10,0,0,0,3.45.73,9.93,9.93,0,0,0,9.06-6.55,18.46,18.46,0,0,0,1.38-8.08M188.11,165a14.34,14.34,0,0,0-.16-2.45,19.25,19.25,0,0,0-1.91-6.54,20.59,20.59,0,0,0-2.79-4.12,48.36,48.36,0,0,0-6.3-6c-3.59-3-7.15-5.94-10.45-9.21a8.39,8.39,0,0,1-2.39-4c-.16-.62-.39-1.23-.57-1.85a.73.73,0,0,0-.62-.57c-.36,0-.53.23-.66.51a6.84,6.84,0,0,0-.38,1.16,9.31,9.31,0,0,1-2.36,4.49c-1.06,1.06-2.14,2.1-3.25,3.1-2.41,2.16-4.9,4.23-7.38,6.31a53.71,53.71,0,0,0-6.67,6.38,19.52,19.52,0,0,0-3.38,5.81,24.68,24.68,0,0,0-1.19,7c-.06.79.19,1.56.2,2.36a14.58,14.58,0,0,0,.73,4.13,11.09,11.09,0,0,0,4.37,6.5,9.47,9.47,0,0,0,5.11,1.68,11,11,0,0,0,4.57-1.06,12.55,12.55,0,0,1,2.7-.81,4,4,0,0,1,4.23,1.94c.29.61.61,1.2.86,1.83.72,1.84,1.44,3.67,2.15,5.51.06.15,0,.37.27.38s.27-.15.33-.32c.31-.83.63-1.66.94-2.48.62-1.62,1.24-3.24,2-4.8a4.06,4.06,0,0,1,4.61-2A21.7,21.7,0,0,1,174,179a9.05,9.05,0,0,0,7.91-.42,10.27,10.27,0,0,0,4.93-6,24.15,24.15,0,0,0,1.26-7.58m0-83.9a19.76,19.76,0,0,0-.33-3.76A17.62,17.62,0,0,0,186,72a25,25,0,0,0-4.75-6.21c-2.55-2.49-5.38-4.68-8.09-7-2.3-2-4.57-4-6.73-6.1a8.08,8.08,0,0,1-2.23-3.57c-.21-.77-.47-1.52-.69-2.28a.56.56,0,0,0-.58-.44.59.59,0,0,0-.68.33c-.09.21-.16.44-.23.66a13.82,13.82,0,0,1-1.57,3.92,14.81,14.81,0,0,1-1.92,2.11c-2.31,2.27-4.8,4.34-7.27,6.44a93,93,0,0,0-8,7.14,20.15,20.15,0,0,0-4.67,7.57,21.25,21.25,0,0,0-1,6.75,24.8,24.8,0,0,0,.49,4.52,15.1,15.1,0,0,0,2.43,5.91,9.47,9.47,0,0,0,6.21,3.83,5.6,5.6,0,0,0,2,.12,16.81,16.81,0,0,0,4.35-1.25,7.69,7.69,0,0,1,1.64-.54,4.14,4.14,0,0,1,4.8,2c.87,1.81,1.61,3.67,2.32,5.54.22.57.41,1.16.63,1.73.06.17.14.35.37.32s.22-.17.27-.31c.29-.77.59-1.53.88-2.3a34.34,34.34,0,0,1,2.14-5,3.34,3.34,0,0,1,1.36-1.48,4.92,4.92,0,0,1,3.9-.28c1,.3,1.91.75,2.89,1.07a9.09,9.09,0,0,0,5.46.29,10,10,0,0,0,6.68-5.92,23.7,23.7,0,0,0,1.62-8.3m-36.47,42v-.79a17.81,17.81,0,0,0-2.49-9.32,25.45,25.45,0,0,0-4.18-5.2c-1.7-1.69-3.53-3.24-5.38-4.77-3-2.44-5.85-5-8.68-7.57a10.31,10.31,0,0,1-3.27-5.08,17.19,17.19,0,0,0-.53-1.68.63.63,0,0,0-.65-.4.57.57,0,0,0-.57.47c-.05.17-.11.34-.15.51a12.32,12.32,0,0,1-3.93,6.5q-4.86,4.35-9.87,8.53a42.89,42.89,0,0,0-6.88,6.92,18.58,18.58,0,0,0-3.66,9.6,20.69,20.69,0,0,0,.16,5.61,20.18,20.18,0,0,0,1.48,5.31,10.15,10.15,0,0,0,6.1,5.49,7.3,7.3,0,0,0,2.87.41,12,12,0,0,0,4-.95,8.91,8.91,0,0,1,3.76-1,3.65,3.65,0,0,1,3.38,1.87,15.1,15.1,0,0,1,1,2.14c.66,1.77,1.34,3.52,2,5.28.07.18.11.43.4.39s.24-.24.3-.4c.4-1.1.77-2.22,1.21-3.31s1-2.38,1.53-3.57a3.88,3.88,0,0,1,3.59-2.4,8.52,8.52,0,0,1,2.92.62c2,.76,4,1.53,6.25,1.19a10,10,0,0,0,8.14-7.1,18.55,18.55,0,0,0,1.13-7.34M115.33,165a18.72,18.72,0,0,0-1.51-7.91,23.38,23.38,0,0,0-5-7.06c-2.59-2.62-5.55-4.85-8.36-7.24-2.25-1.93-4.49-3.89-6.59-6a8.69,8.69,0,0,1-2.43-4.07c-.14-.59-.36-1.17-.52-1.77a.8.8,0,0,0-.68-.63c-.39,0-.57.3-.7.59a4.93,4.93,0,0,0-.26.93,9.75,9.75,0,0,1-2.55,4.78q-1.58,1.53-3.21,3c-2.61,2.37-5.38,4.59-8.07,6.89a38.25,38.25,0,0,0-7.22,7.55A18.78,18.78,0,0,0,65,163.84a25.06,25.06,0,0,0,.12,3.67,20,20,0,0,0,1.16,5.3,10.72,10.72,0,0,0,3.1,4.59,9.08,9.08,0,0,0,9.52,1.66,22.52,22.52,0,0,1,3.17-1.12,4.22,4.22,0,0,1,4.28,1.13,6,6,0,0,1,1,1.76c.94,2.06,1.69,4.2,2.51,6.31.07.17.07.43.39.38s.21-.24.27-.4c.78-2.16,1.53-4.32,2.48-6.42a4.33,4.33,0,0,1,2.23-2.55,5.31,5.31,0,0,1,3.92,0c1.2.43,2.36,1,3.6,1.28a8.11,8.11,0,0,0,4.15,0A10,10,0,0,0,114,173a20.86,20.86,0,0,0,1.32-8m0-84.08a18.07,18.07,0,0,0-1.55-8,22.53,22.53,0,0,0-4.84-6.78c-2.64-2.65-5.6-5-8.46-7.38C98.28,56.85,96.12,55,94.05,53a8.84,8.84,0,0,1-2.64-4.25c-.14-.63-.36-1.24-.55-1.86a.69.69,0,0,0-.65-.53.64.64,0,0,0-.68.47,5.16,5.16,0,0,0-.29.92,10.17,10.17,0,0,1-2.4,4.66c-1.24,1.34-2.62,2.54-4,3.75-2.84,2.52-5.77,5-8.67,7.42A38,38,0,0,0,69.72,68a19.74,19.74,0,0,0-3.64,6.23A19.34,19.34,0,0,0,65,79.94a22.69,22.69,0,0,0,.13,3.68,21.59,21.59,0,0,0,1.09,4.95,11,11,0,0,0,3.16,4.76,9.15,9.15,0,0,0,6.14,2.33A11.1,11.1,0,0,0,80,94.57a9.37,9.37,0,0,1,2-.7,4.24,4.24,0,0,1,4.45,1.32,7.16,7.16,0,0,1,.89,1.63q1.09,2.52,2,5.08c.17.47.36.94.53,1.4a.26.26,0,0,0,.28.17.23.23,0,0,0,.24-.22,8.36,8.36,0,0,1,.61-1.74c.62-1.78,1.29-3.54,2.08-5.25a3.84,3.84,0,0,1,3.08-2.47A6.27,6.27,0,0,1,98.7,94c1.06.29,2,.81,3.06,1.16a9,9,0,0,0,6.82-.28,10.09,10.09,0,0,0,5.42-5.9,20.93,20.93,0,0,0,1.32-8M53.83,145.36l.93-2.51c.62-1.63,1.27-3.24,2-4.82A4.27,4.27,0,0,1,62,135.7c1.22.32,2.34.86,3.52,1.25a9.06,9.06,0,0,0,8.84-1.62,10.23,10.23,0,0,0,3.28-4.89,22.81,22.81,0,0,0,1.14-9.2,18.56,18.56,0,0,0-3.92-10.35,39.64,39.64,0,0,0-6.2-6.22c-3.49-2.9-6.93-5.85-10.29-8.89a11.12,11.12,0,0,1-3.81-6.17,3.53,3.53,0,0,0-.24-.76c-.08-.22-.19-.45-.49-.44a.54.54,0,0,0-.5.45c-.2.62-.4,1.24-.57,1.86a8.82,8.82,0,0,1-2.47,4.06c-2.63,2.54-5.37,5-8.19,7.31a74.64,74.64,0,0,0-7.82,7A20.11,20.11,0,0,0,30,116a20.38,20.38,0,0,0-1.13,8,22.83,22.83,0,0,0,1.37,7,9.89,9.89,0,0,0,5.43,5.79,9.12,9.12,0,0,0,6.94,0c1-.37,2-.82,3.09-1.09a4.26,4.26,0,0,1,5.05,2,17.71,17.71,0,0,1,1,2.17l2.13,5.46m145.32-.21h.17c.23-.63.47-1.25.71-1.88.69-1.82,1.41-3.63,2.25-5.39a4.29,4.29,0,0,1,5.22-2.16c1,.27,1.89.68,2.83,1a9.16,9.16,0,0,0,9.51-1.47A10.52,10.52,0,0,0,223,130.7a21.53,21.53,0,0,0,1.22-5.76,20.89,20.89,0,0,0-1.24-9.36,22.69,22.69,0,0,0-5.8-8.14c-2.56-2.49-5.42-4.66-8.12-7-2.19-1.91-4.4-3.81-6.45-5.87a9.19,9.19,0,0,1-2.32-3.95c-.14-.48-.27-1-.41-1.44a1.61,1.61,0,0,0-.19-.49.46.46,0,0,0-.81,0,2.48,2.48,0,0,0-.24.66,11,11,0,0,1-3.4,5.92c-.42.37-.83.77-1.24,1.16-2.86,2.66-5.84,5.17-8.86,7.66a45.57,45.57,0,0,0-6.5,6.3,18.6,18.6,0,0,0-3.78,7.46,22.52,22.52,0,0,0-.41,8.22,19.43,19.43,0,0,0,1.58,5.76,9.71,9.71,0,0,0,3.5,4.1,9.22,9.22,0,0,0,8.64.84,28.94,28.94,0,0,1,2.74-1,4.32,4.32,0,0,1,5.52,2.5c.61,1.32,1.15,2.66,1.65,4,.36,1,.74,1.93,1.1,2.89"/><path class="cls-3" d="M151.63,39.09a18.48,18.48,0,0,1-1.38,8.09,9.93,9.93,0,0,1-9.06,6.55,10,10,0,0,1-3.45-.73c-.77-.28-1.53-.57-2.29-.88a5.56,5.56,0,0,0-3.07-.25,3.55,3.55,0,0,0-2.72,2.25,65.71,65.71,0,0,0-2.53,6.3c-.08.25-.19.49-.28.74s-.13.28-.3.3-.25-.13-.31-.27-.18-.49-.28-.74c-.77-2-1.42-4-2.36-5.89a4.86,4.86,0,0,0-1.49-2.08,4.65,4.65,0,0,0-4-.49c-1.11.3-2.18.75-3.26,1.15A8.78,8.78,0,0,1,106,51.61a10.49,10.49,0,0,1-3.59-5.3,23.35,23.35,0,0,1-1-9.63,18.92,18.92,0,0,1,4.33-10.27,47.21,47.21,0,0,1,6.15-6c2.76-2.32,5.57-4.58,8.19-7,.83-.78,1.7-1.51,2.54-2.29a11.33,11.33,0,0,0,3.13-5.76c0-.17.11-.33.14-.5s.29-.41.61-.41.54.06.64.36c.18.56.38,1.11.53,1.68a9.85,9.85,0,0,0,2.7,4.51c2.74,2.67,5.69,5.13,8.63,7.61a74.7,74.7,0,0,1,6.86,6.19,23.77,23.77,0,0,1,2.68,3.34,19.33,19.33,0,0,1,2.22,4.6,17.44,17.44,0,0,1,.87,6.4"/><path class="cls-3" d="M188.11,165a24.15,24.15,0,0,1-1.26,7.58,10.27,10.27,0,0,1-4.93,6A9.05,9.05,0,0,1,174,179a21.7,21.7,0,0,0-3.27-1.11,4.06,4.06,0,0,0-4.61,2c-.78,1.56-1.4,3.18-2,4.8l-.94,2.47c-.06.18-.08.35-.33.33s-.21-.23-.27-.38c-.71-1.84-1.43-3.67-2.15-5.51-.25-.63-.57-1.22-.86-1.83a4,4,0,0,0-4.23-1.94,12.55,12.55,0,0,0-2.7.81,11,11,0,0,1-4.57,1.06,9.38,9.38,0,0,1-5.11-1.68,11.09,11.09,0,0,1-4.37-6.5,14.58,14.58,0,0,1-.73-4.14c0-.79-.26-1.56-.2-2.36a24.61,24.61,0,0,1,1.19-7,19.34,19.34,0,0,1,3.38-5.8,53.06,53.06,0,0,1,6.67-6.39c2.48-2.08,5-4.15,7.38-6.31,1.11-1,2.19-2,3.25-3.1a9.31,9.31,0,0,0,2.36-4.49,6.84,6.84,0,0,1,.38-1.16c.13-.28.3-.56.66-.51a.73.73,0,0,1,.62.57c.18.62.4,1.23.56,1.85a8.49,8.49,0,0,0,2.4,4c3.3,3.27,6.86,6.25,10.45,9.21a47.73,47.73,0,0,1,6.3,6,20.59,20.59,0,0,1,2.79,4.12,19.25,19.25,0,0,1,1.91,6.54,14.34,14.34,0,0,1,.16,2.45"/><path class="cls-3" d="M188.12,81.14a23.7,23.7,0,0,1-1.62,8.3,10,10,0,0,1-6.68,5.92,9.09,9.09,0,0,1-5.46-.29c-1-.32-1.91-.77-2.89-1.07a5,5,0,0,0-3.9.27,3.42,3.42,0,0,0-1.36,1.49,34.34,34.34,0,0,0-2.14,5c-.29.77-.59,1.53-.88,2.3-.05.15-.08.3-.27.32s-.31-.16-.37-.33c-.22-.57-.41-1.16-.63-1.74-.71-1.86-1.45-3.72-2.32-5.53a4.16,4.16,0,0,0-4.8-2,8.52,8.52,0,0,0-1.64.54,16.43,16.43,0,0,1-4.35,1.25,5.6,5.6,0,0,1-2-.12,9.47,9.47,0,0,1-6.21-3.83,15.1,15.1,0,0,1-2.43-5.91,24.71,24.71,0,0,1-.49-4.52,21.29,21.29,0,0,1,1-6.75A20.15,20.15,0,0,1,143.35,67a93.13,93.13,0,0,1,8-7.15c2.47-2.09,5-4.16,7.27-6.42a15.45,15.45,0,0,0,1.92-2.12,13.82,13.82,0,0,0,1.57-3.92c.07-.22.14-.45.23-.66a.6.6,0,0,1,.68-.34.58.58,0,0,1,.58.46c.22.76.48,1.51.69,2.27a8.08,8.08,0,0,0,2.23,3.57c2.16,2.12,4.42,4.13,6.73,6.1,2.71,2.32,5.54,4.51,8.08,7A24.59,24.59,0,0,1,186,72a17.36,17.36,0,0,1,1.75,5.43,19.76,19.76,0,0,1,.33,3.76"/><path class="cls-3" d="M151.65,123.09a18.55,18.55,0,0,1-1.13,7.34,10,10,0,0,1-8.14,7.1c-2.27.34-4.24-.44-6.25-1.19a8.52,8.52,0,0,0-2.92-.62,3.88,3.88,0,0,0-3.59,2.41c-.52,1.18-1.05,2.36-1.53,3.56s-.81,2.21-1.22,3.31c-.05.16-.06.37-.29.4s-.33-.21-.4-.39c-.67-1.76-1.35-3.51-2-5.28a15.1,15.1,0,0,0-1-2.14,3.65,3.65,0,0,0-3.38-1.87,8.91,8.91,0,0,0-3.76,1,12,12,0,0,1-4,.95,7.12,7.12,0,0,1-2.87-.41,10.15,10.15,0,0,1-6.1-5.49,19.81,19.81,0,0,1-1.48-5.31,21.1,21.1,0,0,1-.16-5.61,18.58,18.58,0,0,1,3.66-9.6,42.89,42.89,0,0,1,6.88-6.92c3.35-2.78,6.62-5.63,9.87-8.53a12.32,12.32,0,0,0,3.93-6.5c0-.17.1-.34.15-.51a.56.56,0,0,1,.57-.47.63.63,0,0,1,.65.4c.19.56.39,1.11.54,1.68a10.22,10.22,0,0,0,3.26,5.08c2.82,2.59,5.71,5.13,8.67,7.57,1.86,1.53,3.69,3.08,5.38,4.77a25.37,25.37,0,0,1,4.19,5.19,17.87,17.87,0,0,1,2.49,9.33c0,.26,0,.53,0,.79"/><path class="cls-3" d="M115.33,165a20.67,20.67,0,0,1-1.32,8,10,10,0,0,1-7.09,6.53,8.11,8.11,0,0,1-4.15,0c-1.24-.32-2.4-.85-3.6-1.28a5.36,5.36,0,0,0-3.92,0A4.38,4.38,0,0,0,93,180.7c-.94,2.1-1.69,4.27-2.47,6.42-.06.16,0,.37-.27.4s-.32-.21-.39-.38c-.82-2.11-1.57-4.25-2.51-6.31a6,6,0,0,0-1-1.76,4.22,4.22,0,0,0-4.28-1.13,23.81,23.81,0,0,0-3.17,1.11,9.05,9.05,0,0,1-9.52-1.65,10.72,10.72,0,0,1-3.1-4.59,19.63,19.63,0,0,1-1.16-5.3,25.06,25.06,0,0,1-.12-3.67,18.78,18.78,0,0,1,3.16-9.76,38.25,38.25,0,0,1,7.22-7.55c2.69-2.3,5.46-4.52,8.07-6.89q1.64-1.48,3.21-3a9.75,9.75,0,0,0,2.55-4.78,5.82,5.82,0,0,1,.26-.93c.12-.29.31-.63.7-.59a.82.82,0,0,1,.69.63c.15.6.37,1.18.52,1.77a8.59,8.59,0,0,0,2.42,4.07c2.1,2.08,4.34,4,6.59,6,2.81,2.39,5.77,4.62,8.36,7.24a23.06,23.06,0,0,1,5,7.06,18.57,18.57,0,0,1,1.52,7.91"/><path class="cls-3" d="M115.32,80.89a20.93,20.93,0,0,1-1.32,8,10.09,10.09,0,0,1-5.42,5.9,9,9,0,0,1-6.82.28c-1-.35-2-.87-3.06-1.16a6.27,6.27,0,0,0-2.44-.17,3.84,3.84,0,0,0-3.08,2.47c-.79,1.71-1.46,3.47-2.08,5.25a7.82,7.82,0,0,0-.61,1.74.23.23,0,0,1-.24.22.26.26,0,0,1-.28-.17c-.17-.46-.36-.93-.53-1.4q-.94-2.57-2-5.08a7.16,7.16,0,0,0-.89-1.63c-1.15-1.45-2.73-1.64-4.45-1.32a9.63,9.63,0,0,0-2.06.7,11,11,0,0,1-4.47,1.09,9.15,9.15,0,0,1-6.14-2.33,11.05,11.05,0,0,1-3.16-4.75,21.79,21.79,0,0,1-1.09-5A22.65,22.65,0,0,1,65,79.94a19.34,19.34,0,0,1,1.06-5.76A19.74,19.74,0,0,1,69.72,68a38,38,0,0,1,4.47-4.41c2.9-2.46,5.83-4.9,8.67-7.42,1.36-1.21,2.74-2.41,4-3.75a10.25,10.25,0,0,0,2.39-4.66,4.92,4.92,0,0,1,.29-.92.64.64,0,0,1,.68-.47.71.71,0,0,1,.65.53c.19.62.41,1.23.55,1.86A8.79,8.79,0,0,0,94.05,53c2.07,2,4.22,3.89,6.42,5.76,2.86,2.42,5.82,4.73,8.47,7.38a22.67,22.67,0,0,1,4.83,6.78,18.21,18.21,0,0,1,1.55,8"/><path class="cls-3" d="M53.83,145.36,51.7,139.9a17.71,17.71,0,0,0-1-2.17,4.26,4.26,0,0,0-5.05-2c-1.06.27-2.06.72-3.09,1.09a9.07,9.07,0,0,1-6.94-.06A9.84,9.84,0,0,1,30.19,131a22.83,22.83,0,0,1-1.37-7,19.4,19.4,0,0,1,5.45-14.85,74.64,74.64,0,0,1,7.82-7c2.82-2.35,5.56-4.77,8.19-7.31a8.82,8.82,0,0,0,2.47-4.06c.17-.62.37-1.24.57-1.86a.55.55,0,0,1,.49-.45c.31,0,.42.22.5.44a5.2,5.2,0,0,1,.25.76,11.05,11.05,0,0,0,3.8,6.17c3.36,3,6.8,6,10.29,8.89a40.07,40.07,0,0,1,6.2,6.22,18.56,18.56,0,0,1,3.92,10.35,22.81,22.81,0,0,1-1.14,9.2,10.23,10.23,0,0,1-3.28,4.89A9.06,9.06,0,0,1,65.51,137c-1.19-.39-2.31-.93-3.52-1.25A4.28,4.28,0,0,0,56.77,138c-.74,1.58-1.39,3.19-2,4.82-.28.77-.57,1.53-.93,2.51"/><path class="cls-3" d="M199.15,145.15c-.36-1-.74-1.92-1.1-2.89-.5-1.35-1-2.69-1.65-4a4.32,4.32,0,0,0-5.52-2.5,28.94,28.94,0,0,0-2.74,1,9.22,9.22,0,0,1-8.64-.84,9.71,9.71,0,0,1-3.5-4.1,19.43,19.43,0,0,1-1.58-5.76,22.52,22.52,0,0,1,.41-8.22,18.6,18.6,0,0,1,3.78-7.46,45.57,45.57,0,0,1,6.5-6.3c3-2.49,6-5,8.86-7.66.41-.39.82-.79,1.24-1.16a11,11,0,0,0,3.4-5.92,2.48,2.48,0,0,1,.24-.66.46.46,0,0,1,.81,0,1.61,1.61,0,0,1,.19.49c.14.48.27,1,.41,1.44a9.19,9.19,0,0,0,2.32,3.95c2,2.06,4.26,4,6.45,5.87,2.7,2.34,5.56,4.51,8.12,7a22.69,22.69,0,0,1,5.8,8.14,20.89,20.89,0,0,1,1.24,9.36A21.53,21.53,0,0,1,223,130.7a10.52,10.52,0,0,1-3.13,4.58,9.16,9.16,0,0,1-9.51,1.47c-.94-.35-1.86-.76-2.83-1a4.29,4.29,0,0,0-5.22,2.16c-.84,1.76-1.56,3.57-2.25,5.39-.24.63-.48,1.25-.71,1.88h-.17"/></svg>